Coordinates
version=1
nRows=17
nColumns=36
inDegrees=yes

Units are S.I. units (second, meters, Newtons, ...)
If the header above contains a line with 'inDegrees', this indicates whether rotational values are in degrees (yes) or radians (no).

endheader
time	pelvis_tilt	pelvis_list	pelvis_rotation	pelvis_tx	pelvis_ty	pelvis_tz	hip_flexion_r	hip_adduction_r	hip_rotation_r	knee_angle_r	knee_angle_r_beta	ankle_angle_r	subtalar_angle_r	mtp_angle_r	hip_flexion_l	hip_adduction_l	hip_rotation_l	knee_angle_l	knee_angle_l_beta	ankle_angle_l	subtalar_angle_l	mtp_angle_l	lumbar_extension	lumbar_bending	lumbar_rotation	arm_flex_r	arm_add_r	arm_rot_r	elbow_flex_r	pro_sup_r	arm_flex_l	arm_add_l	arm_rot_l	elbow_flex_l	pro_sup_l
      4.45000000	     -4.10734513	      8.40700953	     10.95454481	      0.41872650	      0.78851632	      0.23444070	     39.13257619	      4.69456511	      1.44823366	     77.56281810	      1.35372655	     19.29519967	    -14.56736312	     -7.49999987	     49.22556667	      0.07157069	    -12.03973419	      9.27931300	      0.16195456	     -9.69431743	    -15.91088487	     -7.49999987	    -19.32916757	     -6.52134477	     -6.80132854	     46.20686715	      8.48561392	     61.66867783	    128.37554549	     85.03197836	     47.18573883	      9.85394830	     75.76282785	    129.59787955	     75.39021323
      4.46666670	     -3.87215952	      8.36454990	     11.34376910	      0.41746746	      0.78484583	      0.23408014	     39.13956117	      4.72204570	      1.14266273	     78.03435431	      1.36195641	     18.97528135	    -13.98681251	     -7.49999987	     49.14668131	      0.20440725	    -11.54387522	      9.65603753	      0.16852965	    -11.15980392	    -18.10219917	     -7.49999987	    -19.94009207	     -6.58240452	     -6.93341670	     46.43298356	      8.72805040	     61.72231307	    127.90550741	     93.19174828	     47.64491618	     10.09879519	     76.49995043	    129.17667913	     81.59864497
      4.48333330	     -3.79190455	      8.02976804	     11.64119110	      0.41826039	      0.78379088	      0.23355667	     39.44877600	      4.90052799	      0.69611631	     78.74920120	      1.37443284	     18.47203427	    -13.69121019	     -7.49999987	     49.36896693	      0.10109833	    -11.14774211	      9.75500951	      0.17025703	    -10.47189582	    -17.31343437	     -7.49999987	    -20.00230273	     -6.38113717	     -6.90021658	     46.23912463	      8.89483101	     61.93749547	    127.29507000	     92.00060424	     47.49252538	     10.20848859	     76.57878816	    128.56803684	     80.67415262
      4.50000000	     -3.22783550	      7.66455785	     11.65531462	      0.41741293	      0.78253464	      0.23369726	     39.22176787	      5.29740551	      0.38053119	     79.07245086	      1.38007462	     18.16277309	    -12.27714771	     -7.49999987	     48.66793281	     -0.12839484	    -11.54064224	      9.06943799	      0.15829155	    -10.68055580	    -16.72777149	     -7.49999987	    -20.96730266	     -5.96457963	     -6.72052216	     46.73879446	      8.92008329	     63.26299288	    127.39099654	     90.96630955	     47.57548790	     10.16181610	     77.47124429	    128.65181011	     79.71016053
      4.51666670	     -2.92913567	      7.30633597	     11.92691660	      0.41787016	      0.77995054	      0.23335658	     39.27086707	      5.52426455	     -0.11901327	     79.38135933	      1.38546609	     19.13131548	    -10.22574873	     -7.49999987	     48.35202064	     -0.12221517	    -11.40634831	      8.71749006	      0.15214890	    -10.58618560	    -16.23091473	     -7.49999987	    -21.58163389	     -5.59524503	     -6.44805138	     47.05802425	      8.90424524	     63.70401188	    127.25705244	     90.54677427	     47.36717063	     10.23758943	     77.74436566	    128.39175851	     79.51887338
      4.53333330	     -3.00662347	      7.02568722	     12.25817279	      0.41711105	      0.77513055	      0.23294688	     39.52073186	      5.59290223	     -0.63805302	     80.00434329	      1.39633921	     19.65459109	     -9.04677684	     -7.49999987	     48.57413734	     -0.06978142	    -10.94935694	      8.60982372	      0.15026977	    -10.07030656	    -15.76096916	     -7.49999987	    -21.91982557	     -5.39515957	     -6.27775384	     46.95691845	      8.92082253	     64.02780236	    127.42750005	     90.07017685	     47.27597989	     10.28751765	     77.96442315	    128.49909008	     79.29445045
      4.55000000	     -3.09903130	      6.74079441	     12.40735014	      0.41732993	      0.77008010	      0.23307583	     40.23132491	      5.90724382	     -0.87530180	     80.82868120	      1.41072662	     20.55175025	     -8.34511806	     -7.49999987	     48.96686791	     -0.10248767	     -9.70466871	      8.37252733	      0.14612817	     -8.92287032	    -15.05053356	     -7.49999987	    -22.13944720	     -5.22534476	     -6.06232137	     47.07109212	      8.85724118	     64.08998169	    127.66211465	     89.46560286	     47.33897605	     10.41896634	     77.71699808	    128.86387861	     78.84488906
      4.56666670	     -3.05924270	      6.32574701	     12.49088695	      0.41661369	      0.76839149	      0.23329332	     40.67692763	      6.45773152	     -1.11758151	     81.57541207	      1.42375953	     21.08316447	     -7.21266896	     -7.49999987	     49.54439364	     -0.59882111	     -9.50095472	      8.99851194	      0.15705366	     -8.47984829	    -14.71657090	     -7.49999987	    -22.46412368	     -4.79925292	     -5.84227692	     47.16371855	      8.80918972	     64.03732738	    128.11039737	     89.09603285	     47.48640085	     10.33677590	     77.34182766	    129.25950153	     78.72230859
      4.58333330	     -2.88817367	      6.05293298	     12.40476561	      0.41726857	      0.76781557	      0.23268035	     40.49738213	      6.74975082	     -1.32623499	     82.18483305	      1.43439593	     20.51453706	     -7.12735665	     -7.49999987	     49.88268417	     -0.95323229	     -8.97612605	      9.55352324	      0.16674044	     -7.19494334	    -13.96027332	     -7.49999987	    -22.67922256	     -4.48064480	     -5.62627984	     47.45555844	      8.72466095	     63.74340774	    128.08722412	     92.56743057	     47.50027701	     10.38350025	     76.42503438	    129.37770447	     83.50244073
      4.60000000	     -2.87478692	      5.91350108	     12.61608329	      0.41660448	      0.76812822	      0.23268470	     40.33983841	      6.75292146	     -1.41675163	     82.27579719	      1.43598356	     18.97225939	     -8.19348693	     -7.49999987	     50.34576674	     -1.12461166	     -8.87793218	     10.27269843	      0.17929241	     -7.14373218	    -14.26391171	     -7.49999987	    -22.95456038	     -4.23676713	     -5.42819228	     47.85028931	      8.55988262	     63.68218890	    128.06753578	     91.77353940	     47.54076288	     10.59367754	     76.40399183	    129.66840377	     82.84175045
      4.61666670	     -2.88563857	      5.79047490	     12.86908900	      0.41724817	      0.76771278	      0.23241459	     40.15362588	      6.75606952	     -1.59073556	     82.00525785	      1.43126175	     17.79036745	     -8.76977046	     -7.49999987	     50.58799667	     -1.19787856	     -8.96003540	     10.77452107	      0.18805087	     -7.32785538	    -14.97554320	     -7.49999987	    -23.08461906	     -4.03017128	     -5.32094834	     48.12565005	      8.49965634	     63.82282223	    127.85113543	     90.64350580	     47.51795278	     10.80561694	     76.48951146	    129.79699922	     82.07849379
      4.63333330	     -2.81770703	      5.69004700	     13.05748985	      0.42200728	      0.77157469	      0.23458667	     39.55493476	      6.91847642	     -1.75898208	     81.36507638	      1.42008848	     16.73551835	     -8.47546592	     -7.49999987	     50.29606482	     -1.34649844	     -9.04134269	     10.82101653	      0.18886237	     -7.44386026	    -14.90436685	     -7.49999987	    -23.06114212	     -4.11799326	     -5.35750370	     47.81303335	      8.34145403	     63.91558133	    127.69819108	     90.69016542	     47.25236354	     10.74054191	     76.50516757	    129.73912874	     82.13312315
      4.65000000	     -2.62532013	      5.72026147	     13.62766525	      0.42228031	      0.77170628	      0.23404940	     39.09849347	      6.88747182	     -1.95847944	     81.10202176	      1.41549731	     14.74344694	     -9.60002819	     -7.49999987	     49.96326428	     -1.13110246	     -9.80418150	     10.86144063	      0.18956790	     -8.08336285	    -15.30029392	     -7.49999987	    -23.27956103	     -4.11768433	     -5.62568870	     47.46051836	      8.43050309	     64.34541642	    127.45463568	     90.69671941	     46.80067690	     10.55658048	     76.59200947	    129.74288638	     82.26769772
      4.66666670	     -2.89409423	      5.55085336	     13.90389428	      0.42156354	      0.77207970	      0.23421821	     39.35547940	      7.09276741	     -2.10577241	     79.96082062	      1.39557959	     16.51164035	     -8.09426589	     -7.49999987	     50.12369233	     -1.13006159	    -10.13682760	     10.50683782	      0.18337891	     -9.40068972	    -16.17153815	     -7.49999987	    -23.03799494	     -4.01618519	     -5.71699216	     47.07577486	      8.59158944	     64.93289193	    127.38082923	     90.89303754	     46.30794237	     10.34792465	     76.54197784	    129.78870610	     82.53763570
      4.68333330	     -3.33106847	      5.63451806	     14.40962244	      0.41686826	      0.77055145	      0.23172252	     40.24197269	      6.67600898	     -2.20832258	     80.12075936	      1.39837105	     17.33996149	     -6.69331568	     -7.49999987	     50.83504108	     -0.60815551	    -10.08519243	     10.97598882	      0.19156714	    -10.26306964	    -16.76637203	     -7.49999987	    -22.73103593	     -3.97191863	     -6.04940629	     46.91977264	      8.71522526	     65.20596995	    127.51453543	     91.08514399	     46.25568173	     10.54333227	     76.42720708	    129.79242268	     82.72325345
      4.70000000	     -3.42101590	      5.61821433	     14.58488704	      0.42129700	      0.77240163	      0.23411974	     40.04126800	      6.72495806	     -2.28439622	     79.57740779	      1.38888778	     17.85847533	     -4.99843850	     -7.49999987	     50.86841350	     -0.58853043	    -10.11594048	     11.10826234	      0.19387575	    -11.01609557	    -17.10476057	     -7.49999987	    -22.47546266	     -3.94994837	     -5.96714966	     46.82475206	      8.71949230	     65.27367004	    127.29437226	     91.21551873	     46.07260781	     10.45429742	     76.06694830	    129.60647673	     82.85688321
      4.71666670	     -3.64369566	      5.76324416	     14.94611720	      0.42130667	      0.77232668	      0.23395764	     39.87263256	      6.36827154	     -2.34994288	     79.85627122	      1.39375486	     17.51195940	     -3.73832334	     -7.49999987	     51.18399084	     -0.31616993	     -9.83129646	     11.74923020	      0.20506275	    -11.21803544	    -17.50295974	     -7.49999987	    -22.06162325	     -4.08633188	     -6.21736805	     46.62400347	      8.78551523	     65.46329690	    127.40004093	     90.71496981	     45.92732692	     10.40109183	     75.85467461	    129.54615970	     82.42488981
